<svg width="164" height="164" viewBox="0 0 164 164" fill="none" xmlns="http://www.w3.org/2000/svg">
<g clip-path="url(#clip0_1_2)">
<path d="M75.3278 163.655C58.1469 161.647 45.2238 156.672 32.4696 147.154C28.3707 144.095 19.9729 135.707 16.9104 131.613C8.46212 120.319 3.20762 107.827 0.970851 93.719C0.132293 88.4299 0.132293 75.5661 0.970851 70.277C3.20762 56.1689 8.46212 43.6772 16.9104 32.3832C19.9729 28.2891 28.3707 19.9013 32.4696 16.8425C43.777 8.40413 56.2835 3.15585 70.4084 0.92173C75.7037 0.0841649 88.5828 0.0841649 93.8782 0.92173C108.003 3.15585 120.51 8.40413 131.817 16.8425C135.916 19.9013 144.314 28.2891 147.376 32.3832C155.824 43.6772 161.079 56.1689 163.316 70.277C164.154 75.5661 164.154 88.4299 163.316 93.719C161.079 107.827 155.824 120.319 147.376 131.613C144.314 135.707 135.916 144.095 131.817 147.154C120.585 155.536 108.023 160.826 94.1119 163.033C90.9397 163.537 77.9852 163.965 75.3278 163.655Z" fill="#0A9018"/>
<path d="M72.8343 136.602C65.2123 135.284 57.1855 132.032 50.6522 127.613C46.2228 124.617 39.206 117.533 36.2249 113.046C29.8947 103.52 26.7885 93.2993 26.7885 81.998C26.7885 70.6967 29.8947 60.4765 36.2249 50.9497C39.41 46.1563 46.2591 39.3153 51.0581 36.134C70.1437 23.4824 94.1428 23.4824 113.228 36.134C118.027 39.3153 124.877 46.1563 128.062 50.9497C140.728 70.0126 140.728 93.9834 128.062 113.046C124.877 117.84 118.027 124.681 113.228 127.862C106.479 132.336 99.1072 135.274 91.3274 136.591C85.9197 137.506 78.0942 137.511 72.8343 136.602ZM89.1645 123.496C102.752 121.153 114.157 112.554 120.195 100.096C125.57 89.0078 125.57 74.9883 120.195 63.9003C115.97 55.1841 108.989 48.2111 100.262 43.9911C89.1613 38.6228 75.1252 38.6228 64.0241 43.9911C55.2976 48.2111 48.3163 55.1841 44.0913 63.9003C38.7166 74.9883 38.7166 89.0078 44.0913 100.096C50.0689 112.428 61.4323 121.068 74.8291 123.468C78.4301 124.114 85.5015 124.127 89.1645 123.496ZM62.5281 104.926C60.2921 103.839 59.5957 103.176 58.5737 101.161C57.4361 98.919 57.4135 96.6644 58.5071 94.5225C59.0196 93.5188 61.2883 90.9931 64.8238 87.4903C67.8582 84.484 70.3409 81.8674 70.3409 81.6756C70.3409 81.4839 67.6508 78.6431 64.3628 75.3629C57.9885 69.0035 57.3749 68.099 57.3749 65.0626C57.3749 61.6799 59.7703 58.3996 62.8605 57.5504C64.8372 57.0072 68.0753 57.3599 69.4019 58.263C70.0098 58.6769 73.0879 61.5699 76.2421 64.692L81.977 70.3685L87.712 64.692C90.8662 61.5699 93.9443 58.6769 94.5522 58.263C95.8788 57.3599 99.1168 57.0072 101.094 57.5504C104.184 58.3996 106.579 61.6799 106.579 65.0626C106.579 68.099 105.966 69.0035 99.5912 75.3629C96.3033 78.6431 93.6132 81.4839 93.6132 81.6756C93.6132 81.8674 96.0958 84.484 99.1302 87.4903C105.218 93.5217 106.247 95.0078 106.247 97.7712C106.247 99.6143 105.06 102.39 103.801 103.493C102.406 104.716 99.8178 105.734 98.0987 105.738C95.3621 105.743 93.7205 104.615 87.5457 98.4888L81.977 92.9636L76.4083 98.4888C72.8339 102.035 70.2452 104.323 69.1799 104.877C67.0032 106.01 64.7901 106.026 62.5281 104.926Z" fill="#09350E"/>
</g>
<defs>
<clipPath id="clip0_1_2">
<rect width="163.84" height="163.84" fill="white"/>
</clipPath>
</defs>
</svg>
